<svg version="1.1" height="70" width="200" viewBox="0.0 0.0 200.0 70.0" fill="none" stroke="none" stroke-linecap="square" stroke-miterlimit="10" xmlns:xlink="http://www.w3.org/1999/xlink" xmlns="http://www.w3.org/2000/svg"><clipPath id="p.0"><path d="m0 0l200.0 0l0 70.0l-200.0 0l0 -70.0z" clip-rule="nonzero"/></clipPath><g clip-path="url(#p.0)"><path fill="#000000" fill-opacity="0.0" d="m0 0l200.0 0l0 70.0l-200.0 0z" fill-rule="evenodd"/><path fill="#ccffd0" d="m0 35.0l40.0 -35.0l120.0 0l40.0 35.0l-40.0 35.0l-120.0 0z" fill-rule="evenodd"/><g filter="url(#shadowFilter-p.1)"><use xlink:href="#p.1" transform="matrix(1.0 0.0 0.0 1.0 0.0 2.0)"/></g><defs><filter id="shadowFilter-p.1" filterUnits="userSpaceOnUse"><feGaussianBlur in="SourceAlpha" stdDeviation="2.0" result="blur"/><feComponentTransfer in="blur" color-interpolation-filters="sRGB"><feFuncR type="linear" slope="0" intercept="0.0"/><feFuncG type="linear" slope="0" intercept="0.0"/><feFuncB type="linear" slope="0" intercept="0.0"/><feFuncA type="linear" slope="0.5" intercept="0"/></feComponentTransfer></filter></defs><g id="p.1"><path fill="#643bb0" d="m25.90275 30.302513l2.7887878 7.310791l-5.715725 0l2.926937 -7.310791zm1.0458012 -4.1030617l-6.431509 15.820045c-0.39479637 0.9918709 -0.7987747 1.6961594 -1.2119331 2.1128616c-0.41315842 0.41376877 -0.81713676 0.65586853 -1.2119331 0.7262955l0 0.54142c0.2815628 -0.03521347 0.60596657 -0.05722046 0.9732189 -0.06602478c0.36725235 -0.008804321 0.75745773 -0.013206482 1.170618 -0.013206482c0.58148 0 1.1537781 0.0044021606 1.7169037 0.013206482c0.566185 0.008804321 1.1599121 0.03081131 1.7811756 0.06602478l0 -0.54142c-0.566185 -0.017604828 -1.05126 -0.0939064 -1.4552383 -0.22889328c-0.40397835 -0.13498688 -0.6962471 -0.37415314 -0.8768158 -0.71749115c-0.17750168 -0.34334183 -0.22340775 -0.83047104 -0.1377182 -1.4613953c0.08568764 -0.6309242 0.33511734 -1.4423218 0.74827576 -2.4341927l0.7472191 -1.8663597l6.1355762 0l1.6925488 4.437008c0.37643433 0.9185066 0.43764114 1.5186195 0.18362617 1.8003311c-0.25401306 0.2787819 -0.8615093 0.43577957 -1.8224888 0.47099304l0 0.54142c0.4529457 -0.03521347 1.065031 -0.05722046 1.8362617 -0.06602478c0.7712307 -0.008804321 1.5883675 -0.013206482 2.4514084 -0.013206482c0.7712326 0 1.5378723 0.0044021606 2.2999191 0.013206482c0.7620506 0.008804321 1.424633 0.03081131 1.9877548 0.06602478l0 -0.54142c-0.26319504 -0.017604828 -0.5600586 -0.14819336 -0.89058685 -0.39175797c-0.32746506 -0.24356842 -0.6227951 -0.68961716 -0.8859978 -1.3381462l-6.8538475 -16.929298c-0.29992104 0.017606735 -0.6243305 0.026411057 -0.9732189 0.026411057c-0.3488903 0 -0.6732979 -0.008804321 -0.9732189 -0.026411057zm16.811192 -1.9764061c-0.5845413 0.12618446 -1.2241745 0.22155762 -1.9188957 0.28611755c-0.6947174 0.061624527 -1.4276924 0.092437744 -2.1989212 0.092437744c-0.5661812 0 -1.1491928 -0.026411057 -1.7490425 -0.07923317l0 0.56783104c0.6947174 0 1.1690865 0.19367981 1.4231033 0.5810375c0.25401688 0.3873577 0.3810234 0.9874687 0.3810234 1.800333l0 15.415081c0 0.7571106 -0.1361885 1.2706528 -0.40856552 1.5406303c-0.272377 0.26997757 -0.7375641 0.40496445 -1.3955612 0.40496445l0 0.56782913c0.37643433 -0.017604828 0.93496704 -0.03961563 1.6755905 -0.06602478c0.7436867 -0.029346466 1.4827805 -0.04401779 2.2172852 -0.04401779c0.7314453 0 1.4537048 0.014671326 2.16679 0.04401779c0.71614456 0.02640915 1.2532501 0.048419952 1.6113205 0.06602478l0 -0.56782913c-0.6579933 0 -1.1231766 -0.13498688 -1.3955574 -0.40496445c-0.27238083 -0.26997757 -0.40856934 -0.78351974 -0.40856934 -1.5406303l0 -18.663605z" fill-rule="evenodd"/><path fill="#643bb0" d="m53.60368 31.609257c0.46824646 0 0.8431549 0.22595787 1.1247101 0.6778755c0.2846222 0.44898224 0.4927292 1.0476265 0.6243324 1.7959328c0.13159943 0.74830246 0.18821716 1.5641022 0.16985321 2.4473953l-4.417885 0c0.10494995 -1.7274704 0.37788773 -2.9717102 0.8188095 -3.7327194c0.4621277 -0.79232407 1.0221901 -1.1884842 1.6801796 -1.1884842zm0.16985703 -0.56783295c-1.33741 0 -2.5279198 0.27437782 -3.5715332 0.8231354c-1.0436058 0.54875946 -1.8622704 1.382164 -2.4559975 2.5002213c-0.5906677 1.1180534 -0.8859978 2.5163574 -0.8859978 4.194908c0 1.6403999 0.2769661 2.9932175 0.8309097 4.0584526c0.5569954 1.0623016 1.3236351 1.8546219 2.2999153 2.3769684c0.9793396 0.5223465 2.1086426 0.78351974 3.3879051 0.78351974c1.0527878 0 1.9540863 -0.20688248 2.7038956 -0.62065125c0.75286865 -0.41670227 1.3741341 -0.94932175 1.8638077 -1.5978508c0.4896698 -0.64853287 0.8462143 -1.3146706 1.069622 -1.9984169l-0.50497055 -0.16286469c-0.37643433 0.5751648 -0.78194046 1.0212135 -1.216526 1.3381462c-0.43152237 0.31399536 -0.85845184 0.52968216 -1.2807922 0.6470604c-0.4223404 0.11738205 -0.8309097 0.17607498 -1.2257042 0.17607498c-0.5845413 0 -1.1583748 -0.17460632 -1.7214966 -0.52381516c-0.5631218 -0.35214233 -1.028305 -0.9155731 -1.3955574 -1.6902885c-0.36725235 -0.7776489 -0.55088043 -1.7885933 -0.55088043 -3.032837c0 -0.25236893 0.004589081 -0.4944687 0.013771057 -0.7262955c0.0072784424 -0.18600082 0.017429352 -0.36647415 0.030467987 -0.54142l7.9113655 0c0 -2.127533 -0.47130585 -3.659359 -1.4139214 -4.5954742c-0.9395561 -0.93904686 -2.235649 -1.4085732 -3.8882828 -1.4085732z" fill-rule="evenodd"/><path fill="#643bb0" d="m71.033066 31.041424c-0.99770355 0 -1.900528 0.18927765 -2.7084808 0.56783295c-0.8079605 0.3785534 -1.4475937 1.0270844 -1.9188995 1.945591l0 -2.4341908c-0.58148193 0.12618446 -1.2165222 0.22155762 -1.9051208 0.28611565c-0.68553925 0.061626434 -1.4231033 0.092437744 -2.212696 0.092437744c-0.563118 0 -1.1461334 -0.026411057 -1.7490387 -0.07923126l0 0.56783104c0.6977806 0 1.1736755 0.1936779 1.4276924 0.5810375c0.25401688 0.3873558 0.38102722 0.98600006 0.38102722 1.7959328l0 8.52187c0 0.7571106 -0.13772202 1.2706528 -0.41315842 1.5406303c-0.27238083 0.26997757 -0.7375679 0.40496445 -1.3955612 0.40496445l0 0.56782913c0.37643433 -0.017604828 0.9410858 -0.03961563 1.6939507 -0.06602478c0.75286865 -0.029346466 1.4858437 -0.04401779 2.1989288 -0.04401779c0.6977768 0 1.3710709 0.014671326 2.0198822 0.04401779c0.64881897 0.02640915 1.1415482 0.048419952 1.4781952 0.06602478l0 -0.56782913c-0.54476166 0 -0.93496704 -0.13498688 -1.1706161 -0.40496445c-0.23565674 -0.26997757 -0.3534851 -0.78351974 -0.3534851 -1.5406303l0 -7.518261c0 -0.59571075 0.12700653 -1.1327286 0.38102722 -1.6110573c0.25401306 -0.4783287 0.5921936 -0.85248184 1.014534 -1.1224594c0.42539978 -0.26997375 0.89211273 -0.40496445 1.4001541 -0.40496445c0.48660278 0 0.85232544 0.09537506 1.0971603 0.28611755c0.2448349 0.18780899 0.41469574 0.44898224 0.50956726 0.78351974c0.09487152 0.3316002 0.1423111 0.72336197 0.1423111 1.1752777l0 8.411827c0 0.7571106 -0.11323547 1.2706528 -0.33971405 1.5406303c-0.22647095 0.26997757 -0.6212692 0.40496445 -1.1843872 0.40496445l0 0.56782913c0.35807037 -0.017604828 0.8798752 -0.03961563 1.5654144 -0.06602478c0.68553925 -0.029346466 1.3863754 -0.04401779 2.1025238 -0.04401779c0.6947174 0 1.3986206 0.014671326 2.111702 0.04401779c0.71614075 0.02640915 1.2532425 0.048419952 1.6113129 0.06602478l0 -0.56782913c-0.6579895 0 -1.1247101 -0.13498688 -1.4001465 -0.40496445c-0.272377 -0.26997757 -0.40856934 -0.78351974 -0.40856934 -1.5406303l0 -7.276165c0 -0.9185066 -0.070388794 -1.6477394 -0.21116638 -2.1876907c-0.14078522 -0.54288864 -0.3611374 -0.98600006 -0.6610565 -1.3293419c-0.2815628 -0.32279778 -0.6717682 -0.5781021 -1.1706161 -0.7659111c-0.4988556 -0.1907444 -1.143074 -0.28611755 -1.9326706 -0.28611755z" fill-rule="evenodd"/><path fill="#643bb0" d="m85.66998 37.203934l0 5.546261c-0.2815628 0.39616394 -0.57842255 0.68081284 -0.89058685 0.8539505c-0.30910492 0.17020035 -0.65034485 0.25530243 -1.0237198 0.25530243c-0.5263977 0 -0.950264 -0.171669 -1.2716141 -0.51501083c-0.31828308 -0.343338 -0.47742462 -0.8656845 -0.47742462 -1.5670357c0 -0.5604973 0.09333801 -1.038826 0.2800293 -1.4349861c0.18974304 -0.39616013 0.43917084 -0.729229 0.74827576 -0.99920654c0.30910492 -0.26997757 0.6319809 -0.51794815 0.9686279 -0.7439041c0.33970642 -0.22595978 0.659523 -0.44604874 0.95944977 -0.6602707c0.30297852 -0.21715546 0.53863525 -0.4621849 0.7069626 -0.7350998zm-1.0696259 -6.16251c-0.8661041 0 -1.6709976 0.08069992 -2.414688 0.24209976c-0.7406235 0.16139984 -1.3741302 0.38589096 -1.900528 0.67347336c-0.4896698 0.30812454 -0.870697 0.6338577 -1.143074 0.97719955c-0.272377 0.3404045 -0.40856934 0.77324677 -0.40856934 1.2985268c0 0.5751686 0.1729126 1.0667038 0.5187454 1.4746017c0.3488922 0.40496445 0.86151123 0.6074486 1.5378723 0.6074486c0.6029053 0 1.1247101 -0.18047333 1.5654144 -0.54142c0.44376373 -0.36094666 0.6656418 -0.8480797 0.6656418 -1.4613953c0 -0.46952438 -0.14690399 -0.889164 -0.44070435 -1.258915c-0.29074097 -0.36975098 -0.6993103 -0.6441269 -1.2257004 -0.8231354c0.24482727 -0.23476028 0.5554657 -0.40202904 0.9319 -0.50180435c0.37643433 -0.09977341 0.75286865 -0.14966011 1.129303 -0.14966011c0.5263901 0 0.95332336 0.09977341 1.2807922 0.29932213c0.33052826 0.19954681 0.57536316 0.4841957 0.7345047 0.8539467c0.15914154 0.36681747 0.23871613 0.7849884 0.23871613 1.2545128l0 2.1084595c0 0.41670227 -0.1836319 0.75564194 -0.55088043 1.0168152c-0.36419678 0.26116943 -0.8431549 0.4871292 -1.4368744 0.6778755c-0.5906677 0.18780899 -1.2104034 0.381485 -1.8592148 0.5810356c-0.64881897 0.19661331 -1.2654953 0.44898224 -1.8500366 0.7571068c-0.58148193 0.30519485 -1.0558548 0.701355 -1.4231033 1.1884842c-0.36725616 0.48713303 -0.55088043 1.1180573 -0.55088043 1.8927727c0 0.6133194 0.13159943 1.1767464 0.39479828 1.6902885c0.26319885 0.5135422 0.67635345 0.92437744 1.2394791 1.232502c0.56617737 0.30519104 1.2716064 0.45778656 2.1162872 0.45778656c0.921196 0 1.7016068 -0.19367981 2.34124 -0.5810356c0.63962555 -0.38735962 1.1859131 -0.92437744 1.6388626 -1.6110573c0 0.4343109 0.08875275 0.81433105 0.26625824 1.1400642c0.1775055 0.32279968 0.47283173 0.5795708 0.88599396 0.77031326c0.41622162 0.18780899 0.9716873 0.2817154 1.6664047 0.2817154c0.6396332 0 1.2180557 -0.08510208 1.7352676 -0.25530243c0.51721954 -0.17313766 0.9732208 -0.42110825 1.3680191 -0.7439041l-0.2846222 -0.46218872c-0.18668365 0.12618637 -0.35959625 0.23476028 -0.5187454 0.32573318c-0.15914154 0.090969086 -0.32440186 0.13645554 -0.49578857 0.13645554c-0.22341156 0 -0.3825531 -0.08510208 -0.47742462 -0.25530243c-0.09487915 -0.17313766 -0.1423111 -0.48566818 -0.1423111 -0.9375839l0 -7.3553963c0 -0.9185066 -0.06580353 -1.6800194 -0.19740295 -2.2845306c-0.13159943 -0.6045151 -0.4131546 -1.1136551 -0.8446808 -1.5274239c-0.47130585 -0.45191765 -1.0558472 -0.7629776 -1.753624 -0.93317986c-0.69472504 -0.17020226 -1.4736023 -0.25530434 -2.336647 -0.25530434z" fill-rule="evenodd"/><path fill="#643bb0" d="m130.29301 31.609257c0.46824646 0 0.84313965 0.22595787 1.1247101 0.6778755c0.2846222 0.44898224 0.49272156 1.0476265 0.6243286 1.7959328c0.1315918 0.74830246 0.18821716 1.5641022 0.16984558 2.4473953l-4.417877 0c0.10494995 -1.7274704 0.3778839 -2.9717102 0.81881714 -3.7327194c0.46211243 -0.79232407 1.022171 -1.1884842 1.6801758 -1.1884842zm-33.453537 -5.356983l0 0.54142c0.2815628 0.017606735 0.5860748 0.1437912 0.9135437 0.3785534c0.33052826 0.2347641 0.61820984 0.6852131 0.86304474 1.3513508l6.321327 16.929298c0.14996338 -0.017604828 0.30910492 -0.02640915 0.47743225 -0.02640915l1.014534 0c0.17138672 0 0.33205414 0.008804321 0.48201752 0.02640915l4.1688766 -12.050159l4.149391 12.050159c0.14996338 -0.017604828 0.30910492 -0.02640915 0.47743225 -0.02640915l1.014534 0c0.17137909 0 0.33205414 0.008804321 0.48201752 0.02640915l4.967087 -15.441492c0.33664703 -1.0446911 0.7299118 -1.8062019 1.179802 -2.2845306c0.4529419 -0.4783268 0.88599396 -0.78938675 1.2991562 -0.93317986l0 -0.54142c-0.2815628 0.017606735 -0.6059723 0.03521347 -0.9732208 0.052820206c-0.36725616 0.017608643 -0.7666397 0.026411057 -1.1981659 0.026411057c-0.563118 0 -1.1277695 -0.008802414 -1.6939468 -0.026411057c-0.563118 -0.017606735 -1.1644974 -0.03521347 -1.8041306 -0.052820206l0 0.54142c0.7712326 0.017606735 1.3634262 0.19367981 1.7765884 0.5282154c0.416214 0.3316021 0.6335068 0.88622856 0.6518707 1.6638775c0.018363953 0.7747154 -0.19892883 1.8472862 -0.6518707 3.2177124l-2.6836548 8.175808l-3.8580322 -11.314287c-0.22647095 -0.6661396 -0.3167572 -1.151804 -0.27085114 -1.456995c0.048973083 -0.30812454 0.23719025 -0.5164757 0.5646515 -0.6250534c0.33052826 -0.10857773 0.7773514 -0.17167091 1.3404694 -0.18927765l0 -0.54142c-0.43151855 0.017606735 -1.0099411 0.03521347 -1.7352676 0.052820206c-0.7222595 0.017608643 -1.4965515 0.026411057 -2.3228683 0.026411057c-0.71614075 0 -1.4368744 -0.008802414 -2.162201 -0.026411057c-0.7222595 -0.017606735 -1.3465881 -0.03521347 -1.8729858 -0.052820206l0 0.54142c0.29992676 0.017606735 0.5860748 0.12618446 0.85845184 0.32573318c0.272377 0.19661331 0.50344086 0.5751667 0.6931915 1.1356621l1.446701 4.201336l-2.8669205 8.037079l0 0l-4.1069336 -11.428484c-0.13159943 -0.3785553 -0.21269989 -0.73363304 -0.24330139 -1.0652351c-0.027542114 -0.3345356 0.03366089 -0.6059799 0.18362427 -0.81433105c0.15302277 -0.20835114 0.41622162 -0.33893776 0.78959656 -0.39175987l0 -0.54142c-0.37337494 0.017606735 -0.85692596 0.03521347 -1.4506531 0.052820206c-0.5937195 0.017608643 -1.2654877 0.026411057 -2.015297 0.026411057c-0.6977768 0 -1.4322815 -0.008802414 -2.203514 -0.026411057c-0.7681656 -0.017606735 -1.4353409 -0.03521347 -2.0015259 -0.052820206zm33.623383 4.78915c-1.3374023 0 -2.527916 0.27437782 -3.5715256 0.8231354c-1.0436096 0.54875946 -1.8622742 1.382164 -2.4560013 2.5002213c-0.5906601 1.1180534 -0.88599396 2.5163574 -0.88599396 4.194908c0 1.6403999 0.2769699 2.9932175 0.8309097 4.0584526c0.5569992 1.0623016 1.3236389 1.8546219 2.2999191 2.3769684c0.9793396 0.5223465 2.108635 0.78351974 3.3879013 0.78351974c1.0527954 0 1.9540863 -0.20688248 2.7039032 -0.62065125c0.7528534 -0.41670227 1.3741302 -0.94932175 1.8638 -1.5978508c0.4896698 -0.64853287 0.84620667 -1.3146706 1.0696259 -1.9984169l-0.50497437 -0.16286469c-0.37643433 0.5751648 -0.78193665 1.0212135 -1.2165222 1.3381462c-0.43151855 0.31399536 -0.8584595 0.52968216 -1.2807922 0.6470604c-0.42234802 0.11738205 -0.83091736 0.17607498 -1.225708 0.17607498c-0.58454895 0 -1.158371 -0.17460632 -1.7214966 -0.52381516c-0.5631256 -0.35214233 -1.028305 -0.9155731 -1.3955536 -1.6902885c-0.36725616 -0.7776489 -0.55088806 -1.7885933 -0.55088806 -3.032837c0 -0.25236893 0.0045928955 -0.4944687 0.0137786865 -0.7262955c0.007270813 -0.18600082 0.017425537 -0.36647415 0.030464172 -0.54142l7.9113693 0c0 -2.127533 -0.47131348 -3.659359 -1.4139252 -4.5954742c-0.93955994 -0.93904686 -2.2356415 -1.4085732 -3.8882904 -1.4085732z" fill-rule="evenodd"/><path fill="#643bb0" d="m143.12653 24.249456c-0.5845337 0.12618446 -1.2241669 0.22155762 -1.9188843 0.28611755c-0.6947174 0.061624527 -1.4277039 0.092437744 -2.1989288 0.092437744c-0.56617737 0 -1.1492004 -0.026411057 -1.7490387 -0.07923317l0 0.56783104c0.6947174 0 1.1690826 0.19367981 1.4230957 0.5810375c0.25401306 0.3873577 0.38102722 0.9874687 0.38102722 1.800333l0 15.38867c0 0.7571106 -0.13618469 1.2706528 -0.40856934 1.5406303c-0.27236938 0.26997757 -0.7375641 0.40496445 -1.3955536 0.40496445l0 0.56782913c0.37643433 -0.017604828 0.93496704 -0.03961563 1.6755829 -0.06602478c0.7436981 -0.029346466 1.4827881 -0.04401779 2.2172852 -0.04401779c0.6763611 0 1.3435364 0.014671326 2.0015259 0.04401779c0.65800476 0.02640915 1.1553192 0.048419952 1.4919739 0.06602478l0 -0.56782913c-0.5631256 0 -0.95791626 -0.13498688 -1.1843872 -0.40496445c-0.22341919 -0.26997757 -0.33512878 -0.78351974 -0.33512878 -1.5406303l0 -7.549076c0 -0.6103821 0.12701416 -1.1503334 0.38102722 -1.6198578c0.25401306 -0.46952438 0.5921936 -0.834877 1.0145416 -1.0960464c0.42233276 -0.26117325 0.88752747 -0.39176178 1.3955536 -0.39176178c0.47131348 0 0.83244324 0.09537506 1.0833893 0.28611755c0.25402832 0.18780899 0.4284668 0.44898224 0.52334595 0.78351974c0.09486389 0.3316002 0.14230347 0.72336197 0.14230347 1.1752777l0 8.411827c0 0.7571106 -0.11323547 1.2706528 -0.33970642 1.5406303c-0.22647095 0.26997757 -0.6212616 0.40496445 -1.1843872 0.40496445l0 0.56782913c0.33970642 -0.017604828 0.85232544 -0.03961563 1.5378723 -0.06602478c0.6855316 -0.029346466 1.3955536 -0.04401779 2.130066 -0.04401779c0.6763458 0 1.3756561 0.014671326 2.0979156 0.04401779c0.72532654 0.02640915 1.2670288 0.048419952 1.6250916 0.06602478l0 -0.56782913c-0.6579895 0 -1.123169 -0.13498688 -1.3955536 -0.40496445c-0.27236938 -0.26997757 -0.40856934 -0.78351974 -0.40856934 -1.5406303l0 -7.276165c0 -0.9185066 -0.07191467 -1.6477394 -0.21575928 -2.1876907c-0.14077759 -0.54288864 -0.37031555 -0.98600006 -0.68859863 -1.3293419c-0.28155518 -0.32279778 -0.6671753 -0.5781021 -1.1568451 -0.7659111c-0.4896698 -0.1907444 -1.1384735 -0.28611755 -1.9464417 -0.28611755c-0.99464417 0 -1.8928833 0.18487549 -2.6947021 0.55462646c-0.79878235 0.36681557 -1.4322968 1.0197487 -1.9005432 1.9587975l0 -9.305391z" fill-rule="evenodd"/><path fill="#643bb0" d="m161.8268 31.578444c0.771225 0 1.4047394 0.5370197 1.900528 1.6110554c0.4988556 1.0740395 0.74827576 2.818615 0.74827576 5.233734c0 2.4151154 -0.24942017 4.1552925 -0.74827576 5.2205276c-0.49578857 1.0622978 -1.129303 1.5934486 -1.900528 1.5934486c-0.75286865 0 -1.383316 -0.5311508 -1.8913422 -1.5934486c-0.5080414 -1.0652351 -0.76205444 -2.8054123 -0.76205444 -5.2205276c0 -2.4151192 0.25401306 -4.1596947 0.76205444 -5.233734c0.5080261 -1.0740356 1.1384735 -1.6110554 1.8913422 -1.6110554zm0 -0.5370197c-1.3374023 0 -2.5279236 0.24356651 -3.5715332 0.73069763c-1.0436096 0.48419952 -1.8622742 1.2677155 -2.4559937 2.3505592c-0.5906677 1.08284 -0.8860016 2.5163574 -0.8860016 4.3005524c0 1.784195 0.29533386 3.2133102 0.8860016 4.287346c0.5937195 1.071106 1.412384 1.8502235 2.4559937 2.3373528c1.0436096 0.48713303 2.2341156 0.73069763 3.5715332 0.73069763c1.3710785 0 2.5738373 -0.2435646 3.608261 -0.73069763c1.0344238 -0.4871292 1.8423767 -1.2662468 2.4238586 -2.3373528c0.58454895 -1.0740356 0.8768158 -2.503151 0.8768158 -4.287346c0 -1.784195 -0.29226685 -3.2177124 -0.8768158 -4.3005524c-0.58148193 -1.0828438 -1.3894348 -1.8663597 -2.4238586 -2.3505592c-1.0344238 -0.48713112 -2.2371826 -0.73069763 -3.608261 -0.73069763z" fill-rule="evenodd"/><path fill="#643bb0" d="m177.92787 24.249456c-0.7895813 0 -1.5271454 0.13205338 -2.2126923 0.39616203c-0.6855316 0.26117325 -1.2348785 0.5810375 -1.6480408 0.9595909c-0.43458557 0.39616203 -0.7834778 0.846611 -1.0466766 1.3513508c-0.26319885 0.50473785 -0.45140076 1.1136532 -0.5646515 1.8267441c-0.11016846 0.7101555 -0.16525269 1.5978508 -0.16525269 2.663086l-1.9188995 0l0 0.54142l1.9188995 0l0 10.89884c0 0.7571106 -0.13772583 1.2706528 -0.41316223 1.5406303c-0.27238464 0.26997757 -0.7375641 0.40496445 -1.3955688 0.40496445l0 0.56782913c0.358078 -0.017604828 0.8798828 -0.03961563 1.5654144 -0.06602478c0.68859863 -0.029346466 1.3894501 -0.04401779 2.1025238 -0.04401779c0.9793396 0 1.9097137 0.014671326 2.7911224 0.04401779c0.88446045 0.02640915 1.5715332 0.048419952 2.061203 0.06602478l0 -0.56782913c-0.82632446 0 -1.4751282 -0.14819336 -1.9464417 -0.4445839c-0.47129822 -0.29932022 -0.70695496 -0.8906288 -0.70695496 -1.773922l0 -10.625929l3.0206451 0l0 -0.54142l-3.0206451 0l0 -2.4606037c0 -1.0652332 0.038253784 -1.8546219 0.11476135 -2.368164c0.07650757 -0.5135422 0.21728516 -0.90530205 0.42234802 -1.1752796c0.14994812 -0.21715546 0.34735107 -0.38882446 0.5921936 -0.5150089c0.24482727 -0.12618446 0.5554657 -0.18927765 0.9319 -0.18927765c0.28155518 0 0.50650024 0.03668213 0.67481995 0.11004448c0.17138672 0.07042885 0.2846222 0.15993118 0.33972168 0.2685089c-0.5447693 0.1437931 -0.95791626 0.39616203 -1.2394867 0.7571087c-0.28155518 0.36094666 -0.42233276 0.7761841 -0.42233276 1.2457085c0 0.59277344 0.20198059 1.0608311 0.60595703 1.404171c0.40397644 0.34333992 0.91659546 0.51501083 1.5378723 0.51501083c0.59983826 0 1.0833893 -0.18927765 1.4506531 -0.56783104c0.36724854 -0.3785553 0.5508728 -0.81139755 0.5508728 -1.2985306c0 -0.45191574 -0.09486389 -0.85247993 -0.2846222 -1.2016888c-0.18667603 -0.35214424 -0.4116211 -0.6279888 -0.67481995 -0.82753754c-0.37643433 -0.26997566 -0.809494 -0.48566437 -1.2991638 -0.6470642c-0.48660278 -0.16433334 -1.0604401 -0.24650002 -1.7214966 -0.24650002z" fill-rule="evenodd"/></g></g></svg>